<?xml version="1.0" standalone="no"?>
<!DOCTYPE svg PUBLIC "-//W3C//DTD SVG 20010904//EN"
 "http://www.w3.org/TR/2001/REC-SVG-20010904/DTD/svg10.dtd">
<svg version="1.0" xmlns="http://www.w3.org/2000/svg"
 width="200.000000pt" height="200.000000pt" viewBox="0 0 200.000000 200.000000"
 preserveAspectRatio="xMidYMid meet">
<metadata>
Created by potrace 1.15, written by Peter Selinger 2001-2017
</metadata>
<g transform="translate(0.000000,200.000000) scale(0.100000,-0.100000)"
fill="#000000" stroke="none">
<path d="M832 1929 c-298 -53 -560 -256 -688 -533 -65 -141 -79 -212 -79 -396
0 -142 3 -176 23 -244 96 -333 335 -572 668 -668 68 -20 102 -23 244 -23 142
0 176 3 244 23 331 95 573 337 668 668 20 68 23 102 23 244 0 142 -3 176 -23
244 -95 330 -335 572 -663 666 -85 25 -325 36 -417 19z m503 -188 c28 -12 60
-29 73 -37 l22 -15 -36 -43 -36 -44 -57 28 c-31 15 -73 33 -93 39 l-38 13 0
58 0 58 58 -17 c31 -10 80 -28 107 -40z m-505 -4 l0 -54 -85 -32 c-46 -17 -87
-37 -91 -42 -4 -7 -24 7 -50 32 l-43 43 32 20 c39 24 195 85 220 86 14 0 17
-9 17 -53z m299 -182 c250 -59 440 -298 441 -552 0 -89 -16 -157 -62 -252 -92
-193 -297 -321 -511 -321 -144 0 -289 62 -397 170 -226 224 -226 575 0 800
141 142 339 199 529 155z m632 -276 c40 -109 40 -109 -24 -109 l-54 0 -32 85
c-17 46 -37 87 -42 91 -7 4 7 24 32 50 l43 44 24 -41 c13 -22 37 -76 53 -120z
m-1381 48 c-10 -18 -28 -60 -40 -94 l-23 -63 -58 0 -58 0 15 52 c18 59 58 152
80 186 l15 23 44 -36 44 -36 -19 -32z m-40 -559 c12 -35 30 -77 40 -94 l18
-32 -42 -42 -43 -41 -38 76 c-20 41 -45 102 -55 135 l-18 60 58 0 57 0 23 -62z
m1450 49 c0 -23 -37 -123 -71 -191 l-33 -66 -42 41 -42 41 28 57 c15 31 33 73
39 94 12 37 13 37 67 37 39 0 54 -4 54 -13z m-997 -486 c37 -12 37 -13 37 -67
0 -39 -4 -54 -13 -54 -24 0 -130 39 -195 72 l-62 32 41 42 41 42 57 -28 c31
-15 73 -33 94 -39z m606 -39 c-43 -26 -190 -82 -214 -82 -11 0 -15 13 -15 53
l0 54 85 32 c46 17 87 37 91 42 4 7 24 -7 50 -32 l44 -43 -41 -24z"/>
<path d="M891 1199 c-61 -111 -111 -207 -111 -213 0 -6 52 -44 115 -84 l115
-74 115 74 c63 40 115 78 115 84 0 17 -221 414 -230 414 -4 0 -58 -91 -119
-201z"/>
<path d="M780 932 c0 -14 220 -327 230 -327 10 0 230 313 230 327 0 5 -6 6
-12 2 -7 -5 -58 -36 -112 -71 -55 -35 -103 -63 -106 -63 -3 0 -51 28 -106 63
-54 35 -105 66 -111 71 -7 4 -13 3 -13 -2z"/>
</g>
</svg>
