<svg id="svg" version="1.1" width="1300" height="1300" xmlns="http://www.w3.org/2000/svg" xmlns:xlink="http://www.w3.org/1999/xlink" ><g id="svgg"><path id="path0" d="M191.231 52.802 C 137.170 56.904,91.834 86.764,68.317 133.756 C 25.862 218.590,73.091 320.839,165.077 343.240 C 250.468 364.036,335.287 305.703,346.288 218.615 C 356.714 136.073,297.955 62.439,214.308 53.223 C 211.265 52.888,194.204 52.577,191.231 52.802 M215.077 62.899 C 223.854 64.018,227.955 64.786,235.077 66.644 C 287.331 80.274,327.310 124.205,336.134 177.692 C 338.367 191.222,338.322 210.776,336.031 222.923 C 335.790 224.201,335.828 224.565,336.255 225.072 C 336.734 225.640,336.734 225.655,336.256 225.285 C 335.793 224.928,335.691 225.128,335.226 227.291 C 317.796 308.456,236.391 356.263,158.000 331.372 C 82.542 307.413,42.579 223.376,71.604 149.692 C 91.180 99.997,136.831 66.578,190.923 62.345 C 194.729 62.047,211.396 62.429,215.077 62.899 M193.846 81.385 L 193.846 91.077 200.000 91.144 C 203.385 91.180,207.019 91.215,208.077 91.221 L 210.000 91.231 210.091 88.984 L 210.181 86.737 206.552 86.770 C 204.556 86.788,202.196 86.796,201.308 86.786 L 199.692 86.769 199.692 84.923 L 199.692 83.077 204.462 83.077 L 209.231 83.077 209.231 81.077 L 209.231 79.077 204.615 79.077 L 200.000 79.077 200.000 77.538 L 200.000 76.000 205.077 76.000 L 210.154 76.000 210.154 74.047 L 210.154 72.095 206.413 71.893 C 204.356 71.783,200.687 71.692,198.259 71.692 L 193.846 71.692 193.846 81.385 M183.944 72.466 C 183.835 72.575,183.423 72.704,183.027 72.753 C 181.077 72.994,179.452 73.307,179.138 73.501 C 178.887 73.656,179.044 75.000,179.702 78.306 C 180.204 80.830,180.615 83.108,180.615 83.367 C 180.615 83.626,178.615 81.841,176.170 79.400 L 171.724 74.962 169.038 75.485 C 167.560 75.772,166.308 76.051,166.255 76.104 C 166.164 76.195,169.834 94.845,169.972 94.993 C 170.144 95.177,175.385 94.000,175.385 93.777 C 175.385 93.637,174.965 91.430,174.452 88.874 C 173.938 86.317,173.571 84.172,173.636 84.108 C 173.700 84.044,175.758 85.915,178.210 88.266 L 182.668 92.541 185.184 92.010 C 186.568 91.718,187.779 91.401,187.874 91.306 C 188.038 91.142,184.852 74.483,184.370 72.981 C 184.244 72.589,184.052 72.358,183.944 72.466 M223.775 74.475 C 215.331 76.163,213.315 89.221,220.903 93.067 C 228.208 96.769,234.527 93.877,236.170 86.080 C 237.679 78.923,231.318 72.967,223.775 74.475 M228.451 79.514 C 232.549 81.227,230.236 90.104,225.776 89.782 C 222.971 89.579,222.305 88.746,222.316 85.454 C 222.332 80.497,224.886 78.025,228.451 79.514 M192.769 98.036 C 175.435 99.807,163.384 103.441,149.997 110.931 C 90.591 144.172,79.934 225.828,128.814 273.239 C 182.858 325.659,273.037 303.668,296.953 232.236 C 313.959 181.443,288.204 125.467,238.584 105.376 C 224.762 99.779,205.660 96.719,192.769 98.036 M212.432 102.909 C 288.914 113.652,324.174 202.261,275.732 261.982 C 257.301 284.705,229.868 297.662,200.154 297.680 C 191.858 297.685,190.266 297.570,183.195 296.457 C 151.136 291.411,121.586 267.455,109.236 236.499 C 83.292 171.463,131.635 101.185,201.538 102.316 C 205.939 102.387,210.474 102.634,212.432 102.909 M198.308 127.414 C 196.615 128.087,193.985 129.110,192.462 129.687 C 190.938 130.264,186.438 131.998,182.462 133.541 C 178.485 135.085,173.500 137.010,171.385 137.819 C 161.920 141.443,154.275 144.387,150.154 145.996 C 147.700 146.955,144.238 148.294,142.462 148.973 C 140.685 149.652,138.700 150.429,138.051 150.700 L 136.872 151.194 138.359 151.960 C 154.004 160.023,195.515 180.259,195.942 180.031 C 196.228 179.878,199.093 178.782,202.308 177.596 C 205.523 176.411,211.131 174.307,214.769 172.922 C 218.408 171.537,222.838 169.874,224.615 169.227 C 232.907 166.208,260.795 155.630,261.002 155.426 C 261.258 155.173,262.184 155.642,227.463 138.409 C 213.884 131.669,202.461 126.162,202.079 126.172 C 201.697 126.182,200.000 126.741,198.308 127.414 M135.077 199.790 L 135.077 245.426 137.615 246.609 C 139.012 247.261,145.138 250.211,151.231 253.166 C 162.401 258.584,169.120 261.838,176.462 265.387 C 178.662 266.450,183.494 268.789,187.201 270.583 C 190.907 272.378,194.057 273.846,194.201 273.846 C 194.344 273.846,194.462 253.495,194.462 228.621 L 194.462 183.397 184.538 178.497 C 179.081 175.802,165.790 169.222,155.004 163.875 C 144.217 158.529,135.321 154.154,135.234 154.154 C 135.148 154.154,135.077 174.690,135.077 199.790 M252.154 162.300 C 246.569 164.385,233.453 169.254,223.007 173.122 L 204.013 180.154 204.007 200.177 L 204.000 220.201 210.538 223.387 C 214.135 225.139,219.154 227.569,221.692 228.788 C 224.231 230.006,228.662 232.144,231.538 233.539 C 234.415 234.934,238.569 236.942,240.769 238.002 C 242.969 239.061,247.954 241.482,251.846 243.382 C 259.782 247.255,262.704 248.615,263.089 248.615 C 263.233 248.615,263.359 228.331,263.369 203.538 C 263.387 160.741,263.361 158.463,262.848 158.486 C 262.551 158.500,257.738 160.216,252.154 162.300 M169.563 314.206 C 168.826 318.323,168.058 322.613,167.856 323.739 L 167.487 325.786 170.121 326.269 C 173.322 326.857,172.972 327.285,173.990 321.538 C 174.925 316.265,174.939 316.220,175.346 317.265 C 176.299 319.712,180.117 327.879,180.385 328.046 C 180.784 328.295,185.519 329.045,185.678 328.886 C 185.801 328.763,188.859 312.082,188.997 310.784 C 189.086 309.945,183.778 308.556,183.534 309.354 C 183.476 309.540,183.062 311.838,182.612 314.462 C 182.163 317.085,181.758 319.267,181.714 319.311 C 181.670 319.356,180.483 316.766,179.077 313.557 L 176.520 307.723 175.106 307.425 C 174.329 307.261,173.064 307.035,172.297 306.923 L 170.901 306.719 169.563 314.206 M224.308 307.170 C 217.730 308.670,214.887 313.674,216.882 320.242 C 219.844 329.992,235.031 329.079,236.466 319.065 C 237.566 311.387,231.565 305.516,224.308 307.170 M202.077 310.082 L 194.462 310.165 194.462 315.408 C 194.462 319.521,194.544 320.602,194.846 320.421 C 195.145 320.241,195.150 320.289,194.872 320.634 C 194.618 320.948,194.563 322.335,194.684 325.385 L 194.854 329.692 202.965 329.606 L 211.077 329.519 211.077 327.178 L 211.077 324.838 205.846 325.059 L 200.615 325.280 200.615 323.256 L 200.615 321.231 205.231 321.231 L 209.846 321.231 209.846 319.217 L 209.846 317.203 205.379 317.262 C 202.922 317.295,200.852 317.262,200.779 317.189 C 200.558 316.968,200.367 314.176,200.575 314.202 C 200.682 314.216,202.950 314.210,205.615 314.190 L 210.462 314.154 210.462 312.187 C 210.462 309.775,211.291 309.983,202.077 310.082 M228.211 312.163 C 231.140 314.082,231.250 320.855,228.372 322.057 C 225.177 323.392,222.739 321.208,222.255 316.580 C 221.836 312.568,225.116 310.135,228.211 312.163 " stroke="none" fill="#000000" fill-rule="evenodd"></path></g></svg>